# xmcd
#
# Track frame offsets:
#	150
#	24878
#	48684
#	72174
#	98325
#	122084
#	153875
#	176290
#	197011
#	215199
#	228248
#	252605
#	276532
#
# Disc length: 4026 seconds
#
# Revision: 1
# Processed by: cddbd v1.5.1PL0 Copyright (c) Steve Scherf et al.
# Submitted via: CDex 1.50Beta5
#
DISCID=b40fb80d
DTITLE=西浦 達雄 - Voice of Mind
DYEAR=1900
DGENRE=
TTITLE0=勇気
TTITLE1=風の色
TTITLE2=手の中の青春
TTITLE3=瞬間(とき)
TTITLE4=迷わずに
TTITLE5=逆光線に君
TTITLE6=オレたちの純情
TTITLE7=手の中の青春ミレニアムバージョン
TTITLE8=あの日のあの頃あの時
TTITLE9=風に吹かれて
TTITLE10=Upon The Wind
TTITLE11=そうだろう・・・
TTITLE12=あの星こそが明日輝く
EXTD=
EXTT0=
EXTT1=
EXTT2=
EXTT3=
EXTT4=
EXTT5=
EXTT6=
EXTT7=
EXTT8=
EXTT9=
EXTT10=
EXTT11=
EXTT12=
PLAYORDER=
